<svg xmlns="http://www.w3.org/2000/svg" viewBox="0 0 1200 120"><defs><style>.cls-1{fill:#3fff60;}.cls-1,.cls-2,.cls-3{fill-opacity:0.88;}.cls-2{fill:#06f;}.cls-3{fill:#0a7fff;}.cls-4{fill:#3f0;}</style></defs><g id="Livello_2" data-name="Livello 2"><g id="Livello_1-2" data-name="Livello 1"><path class="cls-1" d="M671.33,94.82c17.5-3.25,35-6.46,52.84-9A1208.88,1208.88,0,0,1,865.76,74.05c6.74-3.64,13.4-7.21,20-10.55,10.57-5.35,21-11,31.59-16.57-27,6.23-54.24,11.62-82.14,13.28C761.36,64.57,687.66,43.33,617,25q-18.09-4.71-36.16-8.34c27.95,17.56,51.36,45.63,75.48,66.65A154.18,154.18,0,0,0,671.33,94.82Z"/><path class="cls-1" d="M29.61,62.7A167.07,167.07,0,0,1,0,44.53V96.61C6.9,83.33,17.64,72.1,29.61,62.7Z"/><path class="cls-1" d="M433.56,30.11c18-9.12,36.63-18.21,55.61-24a438.57,438.57,0,0,0-81.57,5.74c-36.15,6-69.85,17.84-104.45,29.34q-9,3-18.32,6c30.4,1.15,59.48,6.12,88.15,13.5C393.54,51.67,413.49,40.3,433.56,30.11Z"/><path class="cls-1" d="M1200,50.71a308.4,308.4,0,0,0-64.67-21.55,155.38,155.38,0,0,1,17,12.23c18.37,15.18,32.2,34.73,44.38,55.61H1200Z"/><path class="cls-2" d="M373,60.75c19.43,5,38.68,11.11,58,17.88,53.08,18.6,106.56,35.36,165.56,28.43,25.4-3,50.06-7.65,74.77-12.24a154.18,154.18,0,0,1-15-11.56c-24.12-21-47.53-49.09-75.48-66.65a111.21,111.21,0,0,0-28.15-13c-21.22-6.18-42.56-3.86-63.52,2.51-19,5.77-37.65,14.86-55.61,24C413.49,40.3,393.54,51.67,373,60.75Z"/><path class="cls-2" d="M199.53,53.53c-2.21-.85-5.44-2.1-9.35-3.59-22.52-8.55-33.78-12.83-42.44-15.24-9.25-2.57-24.32-6.77-43.54-5.12a113.13,113.13,0,0,0-43.55,13.3,209.5,209.5,0,0,0-31,19.82C17.64,72.1,6.9,83.33,0,96.61v19.22C61.81,90.41,129.92,65.19,199.53,53.53Z"/><path class="cls-2" d="M1152.31,41.39a155.38,155.38,0,0,0-17-12.23c-48.64-30.26-106.68-28-159.91-9.08-20,7.12-39.13,16.84-58.08,26.85-10.54,5.57-21,11.22-31.59,16.57-6.59,3.34-13.25,6.91-20,10.55,114.61-2.74,228,11.06,334.24,41.43V102.75c-1.09-1.93-2.19-3.84-3.31-5.75C1184.51,76.12,1170.68,56.57,1152.31,41.39Z"/><path class="cls-3" d="M865.76,74.05A1208.88,1208.88,0,0,0,724.17,85.81c-17.82,2.55-35.34,5.76-52.84,9-24.71,4.59-49.37,9.26-74.77,12.24C537.56,114,484.08,97.23,431,78.63c-19.34-6.77-38.59-12.87-58-17.88-28.67-7.38-57.75-12.35-88.15-13.5a353.78,353.78,0,0,0-36,.48,491.49,491.49,0,0,0-49.27,5.8C129.92,65.19,61.81,90.41,0,115.83V120H1200v-4.52C1093.76,85.11,980.37,71.31,865.76,74.05Z"/><path class="cls-4" d="M161.56,39.08l57.56,11.44-19.59,3"/></g></g></svg>