<svg xmlns="http://www.w3.org/2000/svg" viewBox="0 0 1200 120"><defs><style>.cls-1{fill:#3fff60;}.cls-1,.cls-2,.cls-3{fill-opacity:0.88;}.cls-2{fill:#06f;}.cls-3{fill:#0a7fff;}</style></defs><g id="Livello_2" data-name="Livello 2"><g id="Livello_1-2" data-name="Livello 1"><path class="cls-1" d="M671.33,94.82c17.5-3.25,35-6.46,52.84-9A1204.58,1204.58,0,0,1,865.76,74.06c6.74-3.65,13.4-7.22,20-10.55,10.57-5.35,21-11,31.59-16.57-27,6.23-54.24,11.61-82.14,13.27C761.36,64.57,687.66,43.33,617,25q-18.09-4.69-36.16-8.34c27.95,17.56,51.36,45.63,75.48,66.66A155.66,155.66,0,0,0,671.33,94.82Z"/><path class="cls-1" d="M29.61,62.7A167.07,167.07,0,0,1,0,44.53V96.61C6.9,83.34,17.64,72.1,29.61,62.7Z"/><path class="cls-1" d="M401,52.81c48.43-20,98.76-39.93,150-52.58A1450.78,1450.78,0,0,0,331.05,12.81C233.57,26,142.7,51.93,49.41,77.14Q25.2,83.68,0,90.39C82,92.9,160.39,103.82,237.69,120,293.13,100.09,346.93,75.16,401,52.81Z"/><path class="cls-1" d="M1200,54a281.06,281.06,0,0,0-64.67-24.85,158.75,158.75,0,0,1,17,14.1c18.37,17.51,32.2,40,44.38,64.11H1200Z"/><path class="cls-2" d="M373,60.76c19.43,5,38.68,11.1,58,17.88C484.08,97.23,537.56,114,596.56,107.06c25.4-3,50.06-7.65,74.77-12.24a155.66,155.66,0,0,1-15-11.55c-24.12-21-47.53-49.1-75.48-66.66a111.56,111.56,0,0,0-28.15-13c-21.22-6.17-42.56-3.85-63.52,2.51-19,5.77-37.65,14.86-55.61,24C413.49,40.3,393.54,51.67,373,60.76Z"/><path class="cls-2" d="M199.53,53.54C182.3,47,165.12,40.15,147.74,34.7c-30.2-9.44-59-6.73-87.09,8.19a208.6,208.6,0,0,0-31,19.81C17.64,72.1,6.9,83.34,0,96.61v19.22C61.81,90.41,129.92,65.2,199.53,53.54Z"/><path class="cls-2" d="M1152.31,41.39a155.38,155.38,0,0,0-17-12.23c-48.64-30.25-106.68-28-159.91-9.08-20,7.12-39.13,16.84-58.08,26.86-10.54,5.56-21,11.22-31.59,16.57-6.59,3.33-13.25,6.9-20,10.55,114.61-2.74,228,11,334.24,41.42V102.75c-1.09-1.93-2.19-3.84-3.31-5.75C1184.51,76.12,1170.68,56.58,1152.31,41.39Z"/><path class="cls-3" d="M865.76,74.06A1204.58,1204.58,0,0,0,724.17,85.82c-17.82,2.54-35.34,5.75-52.84,9-24.71,4.59-49.37,9.26-74.77,12.24C537.56,114,484.08,97.23,431,78.64c-19.34-6.78-38.59-12.88-58-17.88-28.67-7.38-57.75-12.36-88.15-13.51a353.78,353.78,0,0,0-36,.48,491.52,491.52,0,0,0-49.27,5.81C129.92,65.2,61.81,90.41,0,115.83V120H1200v-4.52C1093.76,85.11,980.37,71.32,865.76,74.06Z"/></g></g></svg>