<svg xmlns="http://www.w3.org/2000/svg" viewBox="0 0 1200 120"><defs><style>.cls-1{fill:#3f0;}.cls-2{fill:#3fff60;}.cls-2,.cls-3,.cls-4{fill-opacity:0.88;}.cls-3{fill:#06f;}.cls-4{fill:#0a7fff;}</style></defs><g id="Livello_2" data-name="Livello 2"><g id="Livello_1-2" data-name="Livello 1"><path class="cls-1" d="M161.19,39.21l57.58,11.31-19.53,3.27"/><path class="cls-2" d="M671.33,94.82c17.5-3.25,35-6.46,52.84-9A1208.88,1208.88,0,0,1,865.76,74.05c6.74-3.64,13.4-7.21,20-10.55,10.57-5.35,21-11,31.59-16.57-27,6.23-54.24,11.62-82.14,13.28C761.36,64.57,687.66,43.33,617,25q-18.09-4.71-36.16-8.34c27.95,17.56,51.36,45.63,75.48,66.65A154.18,154.18,0,0,0,671.33,94.82Z"/><path class="cls-2" d="M29.61,62.7A167.07,167.07,0,0,1,0,44.53V96.61C6.9,83.33,17.64,72.1,29.61,62.7Z"/><path class="cls-2" d="M486.74,6.94a.88.88,0,0,1,.61-.25c0-.08.09-.17.15-.25-32.62.86-65.41,3.19-98.46,7.2C324.59,21.47,264.51,36.91,202.83,51.9l-3.89,1a2.17,2.17,0,0,1,1.57.87,34.22,34.22,0,0,1,5.14-.74c.76-.13,1.52-.28,2.27-.46a29.33,29.33,0,0,1,3.48-.69h.08a.52.52,0,0,1,.23,0l.16,0,.64-.06a.44.44,0,0,1,.32-.31c1-.23,2-.21,3-.37s2-.31,3-.38a.48.48,0,0,1,.24.06h0a26.5,26.5,0,0,0,3.33-.24c2.12-.27,4.23-.5,6.35-.74,1.11-.12,2.22-.25,3.33-.35s2.07-.4,3.12-.5,2.11-.14,3.17-.25,2.18-.1,3.27-.17c2.18-.14,4.36-.34,6.54-.53a.43.43,0,0,1,.31-.11.42.42,0,0,1,.26.08,6.72,6.72,0,0,1,1.41-.12l.9,0a.43.43,0,0,1,.17,0l.12,0h.1a.48.48,0,0,1,.22,0,.3.3,0,0,0,.26,0,.49.49,0,0,1,.14,0h.19a.46.46,0,0,1,.29-.1.48.48,0,0,1,.27.09h.3a.34.34,0,0,1,.14-.09.47.47,0,0,1,.17,0l-.09,0,.07,0h0l.16,0h.05a.43.43,0,0,1,.17,0,.51.51,0,0,1,.22.05.48.48,0,0,1,.22-.05l.1,0a.58.58,0,0,1,.19,0c1.62,0,3.24-.13,4.87-.12H260c1.15-.08,2.31-.1,3.46-.09a.45.45,0,0,1,.33-.13h0a.41.41,0,0,1,.25-.08l.1,0a.43.43,0,0,1,.17,0,.47.47,0,0,1,.28.09l.11,0a.43.43,0,0,1,.24.07.44.44,0,0,1,.32-.14c2.54,0,5.07.09,7.6.11a.44.44,0,0,1,.3-.11.46.46,0,0,1,.32.12.24.24,0,0,1,.08-.06.41.41,0,0,1,.19,0h0a.45.45,0,0,1,.25.07l.07,0,.64,0a.52.52,0,0,1,.28-.09.42.42,0,0,1,.26.08.45.45,0,0,1,.43-.27.44.44,0,0,1,.29.1.47.47,0,0,1,.17,0,.41.41,0,0,1,.16,0,.43.43,0,0,1,.21-.06c.44,0,.88.1,1.32.14s.88,0,1.32,0l.72.06a.43.43,0,0,1,.42-.06l.37.11h0c1,0,2,.06,2.94.14a.44.44,0,0,1,.46-.33c.89,0,1.77.17,2.67.14a19.74,19.74,0,0,1,2.55.17c.82.08,1.64,0,2.45.18a9.17,9.17,0,0,1,2.11.7c1.54,0,3.07,0,4.6,0,.8-.74,52.74,7.55,59.08,9.27,2.63.71,11,1.8,13.22,2.41a12,12,0,0,1,1.85,1,.9.9,0,0,1,.56-.19,1.43,1.43,0,0,1,.22,0l.24-.07s0-.08,0-.11a1.08,1.08,0,0,1,.55-.44l0,0c.34-.15.65-.34,1-.51a3.79,3.79,0,0,1,1.17-.45.85.85,0,0,1,.25-.21c1.21-.62,2.51-1.06,3.76-1.61a34.12,34.12,0,0,1,3.21-1.29,1,1,0,0,1,.31-.32,13.79,13.79,0,0,1,1.3-.72.62.62,0,0,1,.22-.1l.66-.31a.92.92,0,0,1,.7-.33c.56-.25,1.12-.52,1.66-.8a.92.92,0,0,1,.38-.2l.27-.14a1,1,0,0,1,.4-.12l1.32-.83c1.45-.88,3.05-1.34,4.54-2.12s3.21-1.7,4.89-2.42l1.21-.53a5.73,5.73,0,0,1,1-.54,5.59,5.59,0,0,1,1-.73,7.68,7.68,0,0,1,.81-.41,6.24,6.24,0,0,1,.72-.27.92.92,0,0,1,.75-.56.25.25,0,0,1,0-.07.83.83,0,0,1,.32-.2.86.86,0,0,1,.39-.09h0a1,1,0,0,1,.34.07l.1,0a1.3,1.3,0,0,1,.21,0c.44-.22.88-.43,1.26-.65,1.76-1,3.58-1.89,5.39-2.8,2.77-1.37,5.5-2.84,8.2-4.35a4.11,4.11,0,0,1,.38-.45,3.05,3.05,0,0,1,.49-.38,1,1,0,0,1,.17-.1l.4-.17a1.93,1.93,0,0,1,.49-.07l.5-.41c.42-.32.88-.6,1.3-.92l-.05,0A.92.92,0,0,1,426,34l.25,0a.93.93,0,0,1,.7-.29l.09,0A25.56,25.56,0,0,1,431,31.76a6,6,0,0,1,2.1-1.35l.14-.06.24-.1h0l.08,0,.18-.09c.23-.11.45-.24.67-.37.43-.25.86-.51,1.31-.72a.61.61,0,0,1,.18-.05l.07-.05c1-.43,2-.78,3-1.12a.92.92,0,0,1,.95-.87.89.89,0,0,1,.38.09l.13-.1c0-.06,0-.11,0-.16a.75.75,0,0,1,.21-.32.69.69,0,0,1,.32-.21.73.73,0,0,1,.38-.08h0a1,1,0,0,1,.25,0,1,1,0,0,1,.35-.11.9.9,0,0,1,.28-.13l0,0a.2.2,0,0,1,.09-.05.5.5,0,0,1,.08-.07s0-.07.06-.09a.47.47,0,0,1,.09-.06l.18-.14h0l.12-.05.12-.05h.05a.94.94,0,0,1,.59-.25s0,0,.05,0a.71.71,0,0,1,.38-.09h.05a1,1,0,0,1,.3,0c.8-.45,1.56-1,2.37-1.43a1,1,0,0,1,.58-.12.88.88,0,0,1,.86-.55h.06a.89.89,0,0,1,.77-.4,1,1,0,0,1,.18,0l.05,0,.39-.21c.58-.31,1.14-.66,1.73-.95a9.16,9.16,0,0,1,1-.4,1,1,0,0,1,.4-.25,12.51,12.51,0,0,1,2.87-1.52,12.94,12.94,0,0,0,3-1.34.83.83,0,0,1,.43-.13.81.81,0,0,1,.48-.26.89.89,0,0,1,.62-.24h0a6.46,6.46,0,0,1,2.34-1,.88.88,0,0,1,.64-.27c1-.44,1.91-.9,2.86-1.39a8.77,8.77,0,0,1,3.08-1.07.88.88,0,0,1,.85-.53h0a.88.88,0,0,1,.64-.26l.06,0a2.27,2.27,0,0,1,1.67-.67l.19,0A.83.83,0,0,1,473,12a.88.88,0,0,1,.8-.44.93.93,0,0,1,.24.05,2.27,2.27,0,0,1,1.8-.78l.22,0a.85.85,0,0,1,.42-.25.25.25,0,0,1,0-.07l0,0h0l.21-.16h0l0,0,.24-.1h0l.13,0,.12-.09,0,0,.26-.1h0a1.2,1.2,0,0,1,.2,0,.93.93,0,0,1,.66-.26l.09,0a1.31,1.31,0,0,1,.31-.06l0,0a35,35,0,0,1,3.85-1.46,17.11,17.11,0,0,1,3.5-1A.8.8,0,0,1,486.74,6.94Z"/><path class="cls-2" d="M1200,52.53a291.89,291.89,0,0,0-64.67-23.37,155.27,155.27,0,0,1,17,13.27c18.37,16.47,32.2,37.67,44.38,60.32H1200Z"/><path class="cls-3" d="M373,60.75c19.43,5,38.68,11.11,58,17.88,53.08,18.6,106.56,35.36,165.56,28.43,25.4-3,50.06-7.65,74.77-12.24a154.18,154.18,0,0,1-15-11.56c-24.12-21-47.53-49.09-75.48-66.65a111.21,111.21,0,0,0-28.15-13c-21.22-6.18-42.56-3.86-63.52,2.51-19,5.77-37.65,14.86-55.61,24C413.49,40.3,393.54,51.67,373,60.75Z"/><path class="cls-3" d="M199.53,53.53c-2.21-.85-5.44-2.1-9.35-3.59-22.52-8.55-33.78-12.83-42.44-15.24-9.25-2.57-24.32-6.77-43.54-5.12a113.13,113.13,0,0,0-43.55,13.3,209.5,209.5,0,0,0-31,19.82C17.64,72.1,6.9,83.33,0,96.61v19.22C61.81,90.41,129.92,65.19,199.53,53.53Z"/><path class="cls-3" d="M1152.31,41.39a155.38,155.38,0,0,0-17-12.23c-48.64-30.26-106.68-28-159.91-9.08-20,7.12-39.13,16.84-58.08,26.85-10.54,5.57-21,11.22-31.59,16.57-6.59,3.34-13.25,6.91-20,10.55,114.61-2.74,228,11.06,334.24,41.43V102.75c-1.09-1.93-2.19-3.84-3.31-5.75C1184.51,76.12,1170.68,56.57,1152.31,41.39Z"/><path class="cls-4" d="M865.76,74.05A1208.88,1208.88,0,0,0,724.17,85.81c-17.82,2.55-35.34,5.76-52.84,9-24.71,4.59-49.37,9.26-74.77,12.24C537.56,114,484.08,97.23,431,78.63c-19.34-6.77-38.59-12.87-58-17.88-28.67-7.38-57.75-12.35-88.15-13.5a353.78,353.78,0,0,0-36,.48,491.49,491.49,0,0,0-49.27,5.8C129.92,65.19,61.81,90.41,0,115.83V120H1200v-4.52C1093.76,85.11,980.37,71.31,865.76,74.05Z"/></g></g></svg>